<?xml version="1.0" encoding="utf-8"?>
<!-- Generator: Adobe Illustrator 27.0.0, SVG Export Plug-In . SVG Version: 6.00 Build 0)  -->
<svg version="1.1" id="Layer_1" xmlns="http://www.w3.org/2000/svg" xmlns:xlink="http://www.w3.org/1999/xlink" x="0px" y="0px"
	 viewBox="0 0 138 17" style="enable-background:new 0 0 138 17;" xml:space="preserve">
<style type="text/css">
	.st0{fill:#FFFFFF;}
</style>
<path class="st0" d="M135.2,8.2C117.6-9.1,6.5,6.2,1.7,6.9C0.6,7-0.2,8-0.1,9.2s1.1,2,2.2,1.8c0,0,0.1,0,0.1,0
	c3.4-0.5,7.3-1,11.7-1.5C51.2,5,120.4-0.6,132.5,11.2c1.1,1.1,1.6,2.2,1.5,3.6c0,0,0,0.1,0,0.1c0,1.1,0.8,2.1,1.8,2.2
	c0.1,0,0.1,0,0.2,0c1,0,1.9-0.8,2-1.9C138.2,12.5,137.2,10.1,135.2,8.2z"/>
</svg>
