<?xml version="1.0" encoding="utf-8"?>
<!-- Generator: Adobe Illustrator 27.0.0, SVG Export Plug-In . SVG Version: 6.00 Build 0)  -->
<svg version="1.1" id="Layer_1" xmlns="http://www.w3.org/2000/svg" xmlns:xlink="http://www.w3.org/1999/xlink" x="0px" y="0px"
	 viewBox="0 0 80 80" style="enable-background:new 0 0 80 80;" xml:space="preserve">
<style type="text/css">
	.st0{fill:#FFFFFF;}
</style>
<path class="st0" d="M40,52.2L52.2,40L40,27.8l-3.5,3.5l6.2,6.2H27.5v5h15.2l-6.2,6.2L40,52.2z M40,73.3c-4.6,0-8.9-0.9-12.9-2.6
	s-7.6-4.1-10.6-7.2c-3-3-5.4-6.6-7.2-10.6S6.7,44.6,6.7,40c0-4.6,0.9-8.9,2.6-13s4.1-7.6,7.2-10.6S23,11,27.1,9.3S35.4,6.7,40,6.7
	c4.6,0,8.9,0.9,13,2.6s7.6,4.1,10.6,7.1S69,22.9,70.7,27s2.6,8.4,2.6,13c0,4.6-0.9,8.9-2.6,12.9s-4.1,7.6-7.1,10.6
	c-3,3-6.5,5.4-10.6,7.2S44.6,73.3,40,73.3z"/>
</svg>
