<?xml version="1.0" encoding="utf-8"?>
<!-- Generator: Adobe Illustrator 27.0.0, SVG Export Plug-In . SVG Version: 6.00 Build 0)  -->
<svg version="1.1" id="Layer_1" xmlns="http://www.w3.org/2000/svg" xmlns:xlink="http://www.w3.org/1999/xlink" x="0px" y="0px"
	 viewBox="0 0 80 80" style="enable-background:new 0 0 80 80;" xml:space="preserve">
<style type="text/css">
	.st0{fill:#FFFFFF;}
</style>
<path class="st0" d="M43.5,48.7l-6.2-6.2h15.2v-5H37.3l6.2-6.2L40,27.8L27.8,40L40,52.2L43.5,48.7z M27,70.7
	c-4.1-1.8-7.6-4.1-10.6-7.2c-3-3-5.4-6.6-7.1-10.6S6.7,44.6,6.7,40c0-4.6,0.9-8.9,2.6-13s4.1-7.6,7.1-10.6S22.9,11,27,9.3
	s8.4-2.6,13-2.6c4.6,0,8.9,0.9,12.9,2.6s7.6,4.1,10.6,7.1c3,3,5.4,6.5,7.2,10.6s2.6,8.4,2.6,13c0,4.6-0.9,8.9-2.6,12.9
	s-4.1,7.6-7.2,10.6c-3,3-6.6,5.4-10.6,7.2s-8.4,2.6-12.9,2.6C35.4,73.3,31.1,72.5,27,70.7z"/>
</svg>
