<?xml version="1.0" encoding="utf-8"?>
<!-- Generator: Adobe Illustrator 27.0.0, SVG Export Plug-In . SVG Version: 6.00 Build 0)  -->
<svg version="1.1" id="Layer_1" xmlns="http://www.w3.org/2000/svg" xmlns:xlink="http://www.w3.org/1999/xlink" x="0px" y="0px"
	 viewBox="0 0 50 50" style="enable-background:new 0 0 50 50;" xml:space="preserve">
<style type="text/css">
	.st0{fill:#530084;}
</style>
<path class="st0" d="M23.6,35.4h3.1v-8.6h8.7v-3.1h-8.7v-9.1h-3.1v9.1h-9v3.1h9V35.4z M25,45.8c-2.9,0-5.6-0.5-8.1-1.6
	c-2.5-1.1-4.7-2.6-6.6-4.5s-3.4-4.1-4.5-6.6c-1.1-2.5-1.6-5.2-1.6-8.1s0.5-5.6,1.6-8.1c1.1-2.5,2.6-4.7,4.5-6.6s4.1-3.4,6.6-4.5
	c2.5-1.1,5.2-1.6,8.1-1.6s5.6,0.5,8.1,1.6c2.5,1.1,4.7,2.6,6.6,4.5s3.4,4.1,4.5,6.6s1.6,5.2,1.6,8.1s-0.5,5.6-1.6,8.1
	s-2.6,4.7-4.5,6.6c-1.9,1.9-4.1,3.4-6.6,4.5S27.9,45.8,25,45.8z M25,42.7c4.9,0,9.1-1.7,12.5-5.2s5.2-7.6,5.2-12.6
	s-1.7-9.1-5.1-12.5C34.1,9,29.9,7.3,25,7.3c-4.9,0-9.1,1.7-12.5,5.1C9,15.9,7.3,20.1,7.3,25c0,4.9,1.7,9.1,5.2,12.5
	S20.1,42.7,25,42.7z"/>
</svg>
