<?xml version="1.0" encoding="utf-8"?>
<!-- Generator: Adobe Illustrator 27.0.0, SVG Export Plug-In . SVG Version: 6.00 Build 0)  -->
<svg version="1.1" id="Layer_1" xmlns="http://www.w3.org/2000/svg" xmlns:xlink="http://www.w3.org/1999/xlink" x="0px" y="0px"
	 viewBox="0 0 162 162" style="enable-background:new 0 0 162 162;" xml:space="preserve">
<style type="text/css">
	.st0{fill:#03D0FF;}
</style>
<path class="st0" d="M113.4,146.4c-2.6,0-5-1-6.9-2.8l-14.9-14.9c-1.3-1.3-1.3-3.3,0-4.6c1.3-1.3,3.3-1.3,4.6,0l14.9,14.9
	c1.3,1.3,3.3,1.3,4.6,0l23.2-23.2c1.3-1.3,1.3-3.3,0-4.6l-23.2-23.2c-1.8-1.8-2.8-4.3-2.8-6.9s1-5,2.8-6.9l23.2-23.2
	c1.3-1.3,1.3-3.3,0-4.6l-23.2-23.2c-1.3-1.3-3.3-1.3-4.6,0L87.9,46.3c-3.8,3.8-10,3.8-13.7,0L50.9,23.1c-1.3-1.3-3.3-1.3-4.6,0
	L23.1,46.3c-0.6,0.6-0.9,1.4-0.9,2.3c0,0.9,0.3,1.7,0.9,2.3l23.2,23.2c1.8,1.8,2.8,4.3,2.8,6.9s-1,5-2.8,6.9l-23.2,23.2
	c-0.6,0.6-0.9,1.4-0.9,2.3s0.3,1.7,0.9,2.3l23.2,23.2c1.2,1.2,3.4,1.2,4.6,0l23.2-23.2c3.8-3.8,10-3.8,13.7,0c1.3,1.3,1.3,3.3,0,4.6
	c-1.3,1.3-3.3,1.3-4.6,0c-1.3-1.3-3.3-1.3-4.6,0l-23.2,23.2c-1.8,1.8-4.3,2.8-6.9,2.8c-2.6,0-5-1-6.9-2.8l-23.2-23.2
	c-1.8-1.8-2.8-4.3-2.8-6.9s1-5,2.8-6.9l23.2-23.2c0.6-0.6,0.9-1.4,0.9-2.3s-0.3-1.7-0.9-2.3L18.5,55.5c-1.8-1.8-2.8-4.3-2.8-6.9
	c0-2.6,1-5,2.8-6.9l23.2-23.2c3.8-3.8,10-3.8,13.7,0l23.2,23.2c1.3,1.3,3.3,1.3,4.6,0l23.2-23.2c1.8-1.8,4.3-2.8,6.9-2.8
	s5,1,6.9,2.8l23.2,23.2c1.8,1.8,2.8,4.3,2.8,6.9c0,2.6-1,5-2.8,6.9l-23.2,23.2c-0.6,0.6-0.9,1.4-0.9,2.3s0.3,1.7,0.9,2.3l23.2,23.2
	c1.8,1.8,2.8,4.3,2.8,6.9s-1,5-2.8,6.9l-23.2,23.2C118.4,145.3,116,146.4,113.4,146.4z"/>
</svg>
