<?xml version="1.0" encoding="utf-8"?>
<!-- Generator: Adobe Illustrator 27.0.0, SVG Export Plug-In . SVG Version: 6.00 Build 0)  -->
<svg version="1.1" id="Layer_1" xmlns="http://www.w3.org/2000/svg" xmlns:xlink="http://www.w3.org/1999/xlink" x="0px" y="0px"
	 viewBox="0 0 80 80" style="enable-background:new 0 0 80 80;" xml:space="preserve">
<style type="text/css">
	.st0{fill:#FFFFFF;}
</style>
<path class="st0" d="M50.1,23c1-1,2.1-1.4,3.4-1.4c1.3,0,2.4,0.5,3.5,1.5c0.9,0.9,1.4,2.1,1.4,3.4c0,1.4-0.5,2.5-1.4,3.5l-9.9,10
	L57,50c0.9,0.9,1.4,2.1,1.4,3.5c0.1,1.4-0.4,2.6-1.4,3.6c-0.9,0.9-2.1,1.4-3.5,1.4c-1.4,0-2.6-0.5-3.6-1.6L40,47.1l-9.9,10
	c-0.9,0.8-2.1,1.3-3.4,1.4c-1.4,0.1-2.6-0.4-3.6-1.4c-0.9-0.9-1.4-2-1.5-3.4c-0.1-1.3,0.4-2.5,1.3-3.5L33,40L22.9,29.9
	c-1-1-1.4-2.1-1.3-3.4c0.1-1.3,0.6-2.4,1.4-3.4c1.1-1.1,2.3-1.6,3.6-1.5c1.3,0.1,2.4,0.6,3.4,1.5L40,33L50.1,23z"/>
</svg>
